<svg width="442" height="133" viewBox="0 0 442 133" fill="none" xmlns="http://www.w3.org/2000/svg">
<path d="M63.8381 19.2506H16.8659L16.7908 19.2802H2.83098C1.26749 19.2802 0.00012207 20.5475 0.00012207 22.111V25.8898V64.829V64.8586L0.00150385 64.8569C0.0165653 66.4074 1.27689 67.66 2.83111 67.66H63.8383C65.4017 67.66 66.6691 66.3926 66.6691 64.829V22.0816C66.6691 20.5181 65.4018 19.2506 63.8381 19.2506ZM15.595 33.3848H5.69983L10.6474 22.557H20.5424L15.595 33.3848ZM30.3899 22.557H40.285L35.3374 33.3848H25.4424L30.3899 22.557ZM42.3505 48.9723L31.7074 56.7023C31.2849 57.0092 30.7839 57.1656 30.2806 57.1656C29.9042 57.1656 29.5264 57.0783 29.1785 56.901C28.365 56.4865 27.8531 55.6508 27.8531 54.738V39.2783C27.8531 38.3655 28.365 37.5298 29.1785 37.1152C29.9917 36.7007 30.9689 36.7774 31.7074 37.3139L42.3505 45.0438C42.9795 45.5005 43.3516 46.2307 43.3516 47.008C43.3514 47.7855 42.9792 48.5154 42.3505 48.9723ZM55.08 33.3848H45.1849L50.1327 22.557H60.0275L55.08 33.3848Z" fill="black"/>
<path d="M2.70152 16.9847H63.6906C65.1827 16.9847 66.392 15.5567 66.392 13.795V3.18985C66.392 1.42807 65.1828 0 63.6906 0H2.70152C1.20933 0 0 1.42807 0 3.18985V13.7949C0 15.5567 1.2092 16.9847 2.70152 16.9847ZM50.1323 3.07848H60.0271L55.0798 13.9063H45.1847L50.1323 3.07848ZM30.3899 3.07848H40.285L35.3374 13.9063H25.4424L30.3899 3.07848ZM10.6476 3.07848H20.5425L15.595 13.9063H5.69984L10.6476 3.07848Z" fill="black"/>
<path d="M124.958 34.2499C124.958 39.7343 123.567 44.0468 120.786 47.1874C118.02 50.3281 114.169 51.8984 109.231 51.8984C104.184 51.8984 100.286 50.3593 97.5359 47.2812C94.8015 44.1874 93.4343 39.8281 93.4343 34.2031C93.4343 28.6249 94.8093 24.3046 97.5593 21.2421C100.309 18.164 104.216 16.6249 109.278 16.6249C114.2 16.6249 118.044 18.1874 120.809 21.3124C123.575 24.4374 124.958 28.7499 124.958 34.2499ZM97.6531 34.2499C97.6531 38.8906 98.6375 42.414 100.606 44.8203C102.591 47.2109 105.466 48.4062 109.231 48.4062C113.028 48.4062 115.895 47.2109 117.833 44.8203C119.77 42.4296 120.739 38.9062 120.739 34.2499C120.739 29.6406 119.77 26.1484 117.833 23.7734C115.911 21.3828 113.059 20.1874 109.278 20.1874C105.481 20.1874 102.591 21.3906 100.606 23.7968C98.6375 26.1874 97.6531 29.6718 97.6531 34.2499ZM147.786 51.4296L136.161 21.0546H135.973C136.192 23.4609 136.302 26.3203 136.302 29.6328V51.4296H132.622V17.164H138.622L149.473 45.4296H149.661L160.606 17.164H166.559V51.4296H162.575V29.3515C162.575 26.8203 162.684 24.0703 162.903 21.1015H162.716L150.997 51.4296H147.786ZM203.333 33.9687C203.333 39.6249 201.794 43.9531 198.716 46.9531C195.653 49.9374 191.239 51.4296 185.473 51.4296H175.981V17.164H186.481C191.809 17.164 195.95 18.6406 198.903 21.5937C201.856 24.5468 203.333 28.6718 203.333 33.9687ZM199.114 34.1093C199.114 29.6406 197.989 26.2734 195.739 24.0078C193.505 21.7421 190.177 20.6093 185.755 20.6093H179.966V47.9843H184.817C189.567 47.9843 193.137 46.8203 195.528 44.4921C197.919 42.1484 199.114 38.6874 199.114 34.1093ZM222.364 25.3203C225.739 25.3203 228.356 26.4765 230.216 28.789C232.091 31.0859 233.028 34.3437 233.028 38.5624C233.028 42.7812 232.083 46.0624 230.192 48.4062C228.317 50.7343 225.708 51.8984 222.364 51.8984C220.692 51.8984 219.161 51.5937 217.77 50.9843C216.395 50.3593 215.239 49.4062 214.302 48.1249H214.02L213.2 51.4296H210.411V14.9609H214.302V23.8203C214.302 25.8046 214.239 27.5859 214.114 29.164H214.302C216.114 26.6015 218.802 25.3203 222.364 25.3203ZM221.802 28.5781C219.145 28.5781 217.231 29.3437 216.059 30.8749C214.887 32.3906 214.302 34.9531 214.302 38.5624C214.302 42.1718 214.903 44.7578 216.106 46.3203C217.309 47.8671 219.239 48.6406 221.895 48.6406C224.286 48.6406 226.067 47.7734 227.239 46.039C228.411 44.289 228.997 41.7812 228.997 38.5156C228.997 35.1718 228.411 32.6796 227.239 31.039C226.067 29.3984 224.255 28.5781 221.802 28.5781ZM274.442 51.4296L270.177 40.5312H256.442L252.223 51.4296H248.192L261.739 17.0234H265.091L278.567 51.4296H274.442ZM268.934 36.9453L264.95 26.3281C264.434 24.9843 263.903 23.3359 263.356 21.3828C263.012 22.8828 262.52 24.5312 261.88 26.3281L257.848 36.9453H268.934ZM303.669 51.4296L298.958 36.3593C298.661 35.4374 298.106 33.3437 297.294 30.0781H297.106C296.481 32.8124 295.934 34.9218 295.466 36.4062L290.614 51.4296H286.114L279.106 25.7421H283.184C284.841 32.1953 286.098 37.1093 286.958 40.4843C287.833 43.8593 288.333 46.1328 288.458 47.3046H288.645C288.817 46.414 289.091 45.2656 289.466 43.8593C289.856 42.4374 290.192 41.3124 290.473 40.4843L295.184 25.7421H299.403L303.997 40.4843C304.872 43.1718 305.466 45.4296 305.778 47.2578H305.966C306.028 46.6953 306.192 45.8281 306.458 44.6562C306.739 43.4843 308.372 37.1796 311.356 25.7421H315.387L308.286 51.4296H303.669ZM335.848 51.4296L335.075 47.7734H334.887C333.606 49.3828 332.325 50.4765 331.044 51.0546C329.778 51.6171 328.192 51.8984 326.286 51.8984C323.739 51.8984 321.739 51.2421 320.286 49.9296C318.848 48.6171 318.13 46.7499 318.13 44.3281C318.13 39.1406 322.278 36.4218 330.575 36.1718L334.934 36.0312V34.4374C334.934 32.4218 334.497 30.9374 333.622 29.9843C332.762 29.0156 331.38 28.5312 329.473 28.5312C327.333 28.5312 324.911 29.1874 322.208 30.4999L321.012 27.5234C322.278 26.8359 323.661 26.2968 325.161 25.9062C326.677 25.5156 328.192 25.3203 329.708 25.3203C332.77 25.3203 335.036 25.9999 336.505 27.3593C337.989 28.7187 338.731 30.8984 338.731 33.8984V51.4296H335.848ZM327.059 48.6874C329.481 48.6874 331.38 48.0234 332.755 46.6953C334.145 45.3671 334.841 43.5078 334.841 41.1171V38.7968L330.95 38.9609C327.856 39.0703 325.622 39.5546 324.247 40.414C322.887 41.2578 322.208 42.5781 322.208 44.3749C322.208 45.7812 322.63 46.8515 323.473 47.5859C324.333 48.3203 325.528 48.6874 327.059 48.6874ZM358.489 25.2734C359.63 25.2734 360.653 25.3671 361.559 25.5546L361.02 29.164C359.958 28.9296 359.02 28.8124 358.208 28.8124C356.13 28.8124 354.348 29.6562 352.864 31.3437C351.395 33.0312 350.661 35.1328 350.661 37.6484V51.4296H346.77V25.7421H349.981L350.427 30.4999H350.614C351.567 28.8281 352.716 27.539 354.059 26.6328C355.403 25.7265 356.88 25.2734 358.489 25.2734ZM383.848 47.9843H383.637C381.841 50.5937 379.153 51.8984 375.575 51.8984C372.216 51.8984 369.598 50.7499 367.723 48.4531C365.864 46.1562 364.934 42.8906 364.934 38.6562C364.934 34.4218 365.872 31.1328 367.747 28.789C369.622 26.4453 372.231 25.2734 375.575 25.2734C379.059 25.2734 381.731 26.539 383.591 29.0703H383.895L383.731 27.2187L383.637 25.414V14.9609H387.528V51.4296H384.364L383.848 47.9843ZM376.067 48.6406C378.723 48.6406 380.645 47.9218 381.833 46.4843C383.036 45.0312 383.637 42.6953 383.637 39.4765V38.6562C383.637 35.0156 383.028 32.4218 381.809 30.8749C380.606 29.3124 378.677 28.5312 376.02 28.5312C373.739 28.5312 371.989 29.4218 370.77 31.2031C369.567 32.9687 368.966 35.4687 368.966 38.7031C368.966 41.9843 369.567 44.4609 370.77 46.1328C371.973 47.8046 373.739 48.6406 376.067 48.6406ZM412.372 44.4218C412.372 46.8124 411.481 48.6562 409.7 49.9531C407.919 51.2499 405.419 51.8984 402.2 51.8984C398.794 51.8984 396.137 51.3593 394.231 50.2812V46.6718C395.466 47.2968 396.786 47.789 398.192 48.1484C399.614 48.5078 400.981 48.6874 402.294 48.6874C404.325 48.6874 405.887 48.3671 406.981 47.7265C408.075 47.0703 408.622 46.0781 408.622 44.7499C408.622 43.7499 408.184 42.8984 407.309 42.1953C406.45 41.4765 404.762 40.6328 402.247 39.664C399.856 38.7734 398.153 37.9999 397.137 37.3437C396.137 36.6718 395.387 35.914 394.887 35.0703C394.403 34.2265 394.161 33.2187 394.161 32.0468C394.161 29.9531 395.012 28.3046 396.716 27.1015C398.419 25.8828 400.755 25.2734 403.723 25.2734C406.489 25.2734 409.192 25.8359 411.833 26.9609L410.45 30.1249C407.872 29.0624 405.536 28.5312 403.442 28.5312C401.598 28.5312 400.208 28.8203 399.27 29.3984C398.333 29.9765 397.864 30.7734 397.864 31.789C397.864 32.4765 398.036 33.0624 398.38 33.5468C398.739 34.0312 399.309 34.4921 400.091 34.9296C400.872 35.3671 402.372 35.9999 404.591 36.8281C407.637 37.9374 409.692 39.0546 410.755 40.1796C411.833 41.3046 412.372 42.7187 412.372 44.4218Z" fill="black"/>
</svg>
